<?xml version="1.0" standalone="no"?>
<!DOCTYPE svg PUBLIC "-//W3C//DTD SVG 20010904//EN"
 "http://www.w3.org/TR/2001/REC-SVG-20010904/DTD/svg10.dtd">
<svg version="1.0" xmlns="http://www.w3.org/2000/svg"
 width="153.000000pt" height="153.000000pt" viewBox="0 0 153.000000 153.000000"
 preserveAspectRatio="xMidYMid meet">
<metadata>
Created by potrace 1.11, written by Peter Selinger 2001-2013
</metadata>
<g transform="translate(0.000000,153.000000) scale(0.100000,-0.100000)"
fill="#000000" stroke="none">
<path d="M833 1518 c-69 -18 -95 -73 -225 -495 l-13 -43 -128 0 c-143 0 -169
-8 -211 -63 -31 -41 -34 -82 -7 -97 11 -5 81 -10 156 -10 106 0 136 -3 133
-12 -3 -7 -20 -57 -37 -110 l-33 -98 -132 0 c-124 0 -134 -1 -165 -24 -42 -31
-62 -59 -67 -96 -7 -43 16 -50 170 -50 80 0 136 -4 136 -10 0 -5 -26 -87 -57
-182 -31 -95 -57 -184 -57 -198 -1 -22 3 -25 38 -26 32 -1 45 5 76 36 30 30
47 66 97 206 l61 169 116 3 c79 2 116 -1 116 -8 0 -12 -86 -282 -100 -315 -14
-34 -20 -70 -11 -83 10 -16 63 -9 96 12 38 25 52 52 114 228 l58 163 119 5
c127 5 147 12 188 61 30 35 36 93 10 103 -9 3 -69 6 -135 6 -65 0 -119 1 -119
3 0 1 18 49 39 107 l39 105 115 5 c120 5 128 8 180 64 23 26 32 65 20 85 -8
13 -33 17 -132 19 -66 1 -121 4 -121 6 0 2 37 104 81 227 92 254 101 292 72
307 -22 12 -63 9 -104 -6 -60 -23 -78 -64 -200 -459 l-23 -73 -108 0 c-59 0
-108 2 -108 4 0 2 25 73 56 157 124 342 128 361 96 378 -21 11 -43 11 -89 -1z
m97 -710 c0 -2 -16 -50 -34 -108 l-35 -105 -115 -3 c-64 -1 -116 -1 -116 0 0
6 71 202 76 210 4 7 224 12 224 6z"/>
</g>
</svg>
