<?xml version="1.0" standalone="no"?>
<!DOCTYPE svg PUBLIC "-//W3C//DTD SVG 20010904//EN"
 "http://www.w3.org/TR/2001/REC-SVG-20010904/DTD/svg10.dtd">
<svg version="1.0" xmlns="http://www.w3.org/2000/svg"
 width="120.000000pt" height="120.000000pt" viewBox="0 0 120.000000 120.000000"
 preserveAspectRatio="xMidYMid meet">
<metadata>
Created by potrace 1.11, written by Peter Selinger 2001-2013
</metadata>
<g transform="translate(0.000000,120.000000) scale(0.100000,-0.100000)"
fill="#000000" stroke="none">
<path d="M846 1180 c-22 -4 -47 -17 -57 -28 -15 -20 -32 -104 -46 -233 l-6
-57 -86 -4 c-47 -3 -87 -4 -89 -3 -2 2 8 67 23 146 23 134 24 145 8 156 -32
24 -80 26 -115 6 -44 -25 -55 -51 -68 -158 -6 -49 -13 -104 -16 -121 l-5 -32
-75 -4 c-65 -3 -79 -7 -95 -27 -27 -32 -24 -77 6 -106 20 -21 34 -25 86 -25
l61 0 -6 -52 c-3 -29 -8 -78 -12 -109 l-6 -57 -70 -6 c-84 -9 -108 -28 -108
-84 0 -56 26 -75 105 -80 36 -2 63 -8 60 -12 -3 -4 -5 -60 -6 -124 -2 -132 8
-156 66 -156 58 0 95 59 95 152 0 35 3 80 6 100 l6 37 82 3 c44 2 82 3 84 2 1
-1 -2 -44 -8 -97 -17 -152 8 -207 93 -207 73 0 75 4 74 142 -1 165 0 168 69
168 99 0 156 42 140 105 -13 51 -41 67 -113 63 l-65 -3 7 90 c11 135 11 135
95 135 62 0 74 3 95 25 16 15 25 36 25 55 0 19 -9 40 -25 55 -20 21 -33 25
-88 25 l-63 0 18 118 c10 64 21 134 25 154 5 34 3 38 -21 48 -15 5 -30 9 -34
9 -4 -1 -25 -5 -46 -9z m-139 -532 c-4 -24 -9 -73 -13 -110 l-6 -68 -86 0 -85
0 7 88 c11 141 4 132 103 132 l85 0 -5 -42z"/>
</g>
</svg>
